<?xml version="1.0" encoding="UTF-8" standalone="no"?>
<!-- Created with Inkscape (http://www.inkscape.org/) -->

<svg
   width="281.49594mm"
   height="108.40343mm"
   viewBox="0 0 281.49594 108.40343"
   version="1.1"
   id="svg8"
   sodipodi:docname="case-cut.svg"
   inkscape:version="1.2.1 (9c6d41e410, 2022-07-14)"
   xmlns:inkscape="http://www.inkscape.org/namespaces/inkscape"
   xmlns:sodipodi="http://sodipodi.sourceforge.net/DTD/sodipodi-0.dtd"
   xmlns="http://www.w3.org/2000/svg"
   xmlns:svg="http://www.w3.org/2000/svg"
   xmlns:rdf="http://www.w3.org/1999/02/22-rdf-syntax-ns#"
   xmlns:cc="http://creativecommons.org/ns#"
   xmlns:dc="http://purl.org/dc/elements/1.1/">
  <sodipodi:namedview
     id="namedview118"
     pagecolor="#ffffff"
     bordercolor="#000000"
     borderopacity="0.25"
     inkscape:showpageshadow="2"
     inkscape:pageopacity="0.0"
     inkscape:pagecheckerboard="0"
     inkscape:deskcolor="#d1d1d1"
     inkscape:document-units="mm"
     showgrid="false"
     inkscape:zoom="0.75134393"
     inkscape:cx="743.33468"
     inkscape:cy="391.29883"
     inkscape:window-width="1920"
     inkscape:window-height="1052"
     inkscape:window-x="0"
     inkscape:window-y="0"
     inkscape:window-maximized="1"
     inkscape:current-layer="svg8" />
  <defs
     id="defs2" />
  <metadata
     id="metadata5">
    <rdf:RDF>
      <cc:Work
         rdf:about="">
        <dc:format>image/svg+xml</dc:format>
        <dc:type
           rdf:resource="http://purl.org/dc/dcmitype/StillImage" />
      </cc:Work>
    </rdf:RDF>
  </metadata>
  <rect
     style="fill:#ffffff;fill-opacity:1;stroke-width:10.0002;stroke-linecap:round"
     id="rect345"
     width="281.49594"
     height="108.40343"
     x="0"
     y="0"
     ry="1.7583091e-06" />
  <g
     id="layer1"
     transform="translate(-117.32928,-423.7259)">
    <g
       id="g8149"
       transform="rotate(90,257.83982,476.791)">
      <path
         style="color:#000000;opacity:1;fill:none;stroke:#000000;stroke-width:0.3;stroke-linecap:round;stroke-dasharray:none;stroke-opacity:1"
         d="m 290.44922,546.5293 c 1.9006,-3e-5 3.43947,1.53885 3.43945,3.43945 3e-5,1.90061 -1.53884,3.43948 -3.43945,3.43945 -1.90041,-2.5e-4 -3.43948,-1.53904 -3.43945,-3.43945 -3e-5,-1.9004 1.53905,-3.4392 3.43945,-3.43945 z"
         id="path8145" />
      <path
         style="color:#000000;opacity:1;fill:none;stroke:#000000;stroke-width:0.3;stroke-linecap:round;stroke-dasharray:none;stroke-opacity:1"
         d="m 263.68945,522.70898 v 3 H 257.75 254.68945 v 3.11914 h 3 v 3.14649 l 0.0176,0.0176 c 0.001,10e-4 0.003,0.003 0.004,0.004 0.0574,3.11824 1.3125,6.0916 3.51562,8.29883 l 0.002,0.002 v 0.002 c 0.004,0.003 0.008,0.006 0.0117,0.01 0.6741,0.68223 1.36026,1.3697 2.04883,2.0586 l -2.08789,2.08789 4.32813,4.32812 2.09961,-2.09961 c 0.68079,0.67844 1.36018,1.3549 2.03711,2.03516 l -2.10157,2.10156 4.32813,4.32617 2.08008,-2.08007 c 0.67647,0.68337 1.35324,1.36442 2.02929,2.04492 l -2.07226,2.07226 4.32617,4.32813 2.07812,-2.07813 c 0.62011,0.61135 1.24056,1.22117 1.86329,1.82618 0.0109,0.0107 0.0225,0.0204 0.0332,0.0312 v 0.002 c 2.24463,2.24754 5.28408,3.50546 8.45898,3.52539 v 3.00976 h 3.11914 v -2.99804 h 2.88086 v 2.99804 h 3.11914 v -2.99804 h 2.88086 v 2.99804 h 3.11914 v -0.0586 -3 -2.94141 h 3 v -6.11914 h -3 v -5.88086 h 3 v -6.11914 h -3 v -5.88086 h 3 v -6.11914 h -3 v -2.93945 -3.06055 h -6 v -3 h -9.11914 v 3 h -5.88086 v -3 h -6.11914 v 3 h -5.88086 v -3 z"
         id="rect1558-21-7-8-7-2-7" />
    </g>
    <g
       id="g8113"
       transform="rotate(90,257.83982,476.791)">
      <path
         style="color:#000000;opacity:1;fill:none;stroke:#000000;stroke-width:0.3;stroke-linecap:round;stroke-dasharray:none;stroke-opacity:1"
         d="m 225.71094,503.31055 h 5.8789 v 2.8789 h -5.8789 z"
         id="path8098" />
      <path
         style="color:#000000;opacity:1;fill:none;stroke:#000000;stroke-width:0.3;stroke-linecap:round;stroke-dasharray:none;stroke-opacity:1"
         d="m 213.71094,503.31055 h 5.8789 v 2.8789 h -5.8789 z"
         id="path8096" />
      <path
         style="color:#000000;opacity:1;fill:none;stroke:#000000;stroke-width:0.3;stroke-linecap:round;stroke-dasharray:none;stroke-opacity:1"
         d="m 272.91992,501.8125 h 2.87891 v 5.88086 h -2.87891 z"
         id="path8090" />
      <path
         style="color:#000000;opacity:1;fill:none;stroke:#000000;stroke-width:0.3;stroke-linecap:round;stroke-dasharray:none;stroke-opacity:1"
         d="m 239.91797,501.8125 h 2.88086 v 5.88086 h -2.88086 z"
         id="path8088" />
      <path
         style="color:#000000;opacity:1;fill:none;stroke:#000000;stroke-width:0.3;stroke-linecap:round;stroke-dasharray:none;stroke-opacity:1"
         d="m 230.91992,497.3125 h 5.87891 v 2.88086 h -5.87891 z"
         id="path8082" />
      <path
         style="color:#000000;opacity:1;fill:none;stroke:#000000;stroke-width:0.3;stroke-linecap:round;stroke-dasharray:none;stroke-opacity:1"
         d="m 212.91992,497.3125 h 5.87891 v 2.88086 h -5.87891 z"
         id="path8080" />
      <path
         style="color:#000000;opacity:1;fill:none;stroke:#000000;stroke-width:0.3;stroke-linecap:round;stroke-dasharray:none;stroke-opacity:1"
         d="m 272.91992,489.8125 h 2.87891 v 5.88086 h -2.87891 z"
         id="path8074" />
      <path
         style="color:#000000;opacity:1;fill:none;stroke:#000000;stroke-width:0.3;stroke-linecap:round;stroke-dasharray:none;stroke-opacity:1"
         d="m 239.91797,489.8125 h 2.88086 v 5.88086 h -2.88086 z"
         id="path8072" />
      <path
         style="color:#000000;opacity:1;fill:none;stroke:#000000;stroke-width:0.3;stroke-linecap:round;stroke-dasharray:none;stroke-opacity:1"
         d="m 238.19922,489.8125 v 5.88086 h -2.88086 v -5.87891 z"
         id="path8070" />
      <path
         style="color:#000000;opacity:1;fill:none;stroke:#000000;stroke-width:0.3;stroke-linecap:round;stroke-dasharray:none;stroke-opacity:1"
         d="m 272.91992,477.8125 h 2.87891 v 5.88086 h -2.87891 z"
         id="path8062" />
      <path
         style="color:#000000;opacity:1;fill:none;stroke:#000000;stroke-width:0.3;stroke-linecap:round;stroke-dasharray:none;stroke-opacity:1"
         d="m 239.91797,477.8125 h 2.88086 v 5.88086 h -2.88086 z"
         id="path8060" />
      <path
         style="color:#000000;opacity:1;fill:none;stroke:#000000;stroke-width:0.3;stroke-linecap:round;stroke-dasharray:none;stroke-opacity:1"
         d="m 235.31836,477.8125 h 2.88086 v 5.88086 h -2.88086 z"
         id="path8058" />
      <path
         style="color:#000000;opacity:1;fill:none;stroke:#000000;stroke-width:0.3;stroke-linecap:round;stroke-dasharray:none;stroke-opacity:1"
         d="m 206.79883,465.69336 v 0.0606 3 6.05859 h 3 v 8.88086 h -3 v 9.11914 h 3 v 8.88086 h -3 v 6.12109 h 3 v 5.87891 h -3 v 3.12109 h 12 v 2.99805 h 12.12109 v -2.99805 h 11.87891 v 2.99805 h 9.12109 v -2.99805 h 11.87891 v 2.99805 h 9.12109 v -2.99805 h 11.87891 v 2.99805 h 12.12109 v -2.99805 h 12 v -6.12109 h -3 v -8.88086 h 3 v -6.11914 h -3 v -5.88086 h 3 v -6.11914 h -3 v -8.88086 h 3 v -6.11914 h -9 v -3 h -12.12109 v 3 h -11.87891 v -3 h -12.12109 v 3 h -11.87891 v -3 h -15.12109 v 3 h -23.87891 v -3 z"
         id="rect1158-6-4" />
    </g>
    <g
       id="g8042"
       transform="rotate(90,257.83982,476.791)">
      <path
         style="color:#000000;opacity:1;fill:none;stroke:#000000;stroke-width:0.3;stroke-linecap:round;stroke-dasharray:none;stroke-opacity:1"
         d="m 219.55078,455.32422 h 6 c 1.62979,0 2.94141,1.31162 2.94141,2.9414 0,1.62979 -1.31163,2.93946 -2.94141,2.93946 h -6 c -1.62978,0 -2.93945,-1.30967 -2.93945,-2.93946 0,-1.62978 1.30966,-2.9414 2.93945,-2.9414 z"
         id="path7878" />
      <path
         style="color:#000000;opacity:1;fill:none;stroke:#000000;stroke-width:0.3;stroke-linecap:round;stroke-dasharray:none;stroke-opacity:1"
         d="m 225.61133,452.09766 h 5.88086 v 2.88086 h -5.88086 z"
         id="path7874" />
      <path
         style="color:#000000;opacity:1;fill:none;stroke:#000000;stroke-width:0.3;stroke-linecap:round;stroke-dasharray:none;stroke-opacity:1"
         d="m 213.61133,452.09766 h 5.88086 v 2.88086 h -5.88086 z"
         id="path7872" />
      <path
         style="color:#000000;opacity:1;fill:none;stroke:#000000;stroke-width:0.3;stroke-linecap:round;stroke-dasharray:none;stroke-opacity:1"
         d="m 272.91992,447.89844 h 2.87891 v 5.8789 h -2.87891 z"
         id="path7866" />
      <path
         style="color:#000000;opacity:1;fill:none;stroke:#000000;stroke-width:0.3;stroke-linecap:round;stroke-dasharray:none;stroke-opacity:1"
         d="m 239.91797,447.89844 h 2.88086 v 5.8789 h -2.88086 z"
         id="path7864" />
      <path
         style="color:#000000;opacity:1;fill:none;stroke:#000000;stroke-width:0.3;stroke-linecap:round;stroke-dasharray:none;stroke-opacity:1"
         d="m 272.91992,435.89844 h 2.87891 v 5.8789 h -2.87891 z"
         id="path7858" />
      <path
         style="color:#000000;opacity:1;fill:none;stroke:#000000;stroke-width:0.3;stroke-linecap:round;stroke-dasharray:none;stroke-opacity:1"
         d="m 239.91797,435.89844 h 2.88086 v 5.8789 h -2.88086 z"
         id="path7856" />
      <path
         style="color:#000000;opacity:1;fill:none;stroke:#000000;stroke-width:0.3;stroke-linecap:round;stroke-dasharray:none;stroke-opacity:1"
         d="m 272.91992,423.89844 h 2.87891 v 5.8789 h -2.87891 z"
         id="path7850" />
      <path
         style="color:#000000;opacity:1;fill:none;stroke:#000000;stroke-width:0.3;stroke-linecap:round;stroke-dasharray:none;stroke-opacity:1"
         d="m 239.91797,423.89844 h 2.88086 v 5.8789 h -2.88086 z"
         id="path7848" />
      <path
         style="color:#000000;opacity:1;fill:none;stroke:#000000;stroke-width:0.3;stroke-linecap:round;stroke-dasharray:none;stroke-opacity:1"
         d="m 215.79883,417.77734 v 0.0606 2.93945 h -9 v 3.1211 h 3 v 5.8789 h -3 v 6.1211 h 3 v 5.8789 h -3 v 6.1211 h 3 v 5.8789 h -3 v 6.1211 h 6 v 3 h 24.12109 v -3 h 14.87891 v 3 h 12.12109 v -3 h 11.87891 v 3 h 12.12109 v -3 h 11.87891 v 3 h 9.12109 v -3.06055 -6.06055 h -3 v -5.8789 h 3 v -6.1211 h -3 v -5.8789 h 3 v -6.1211 h -3 v -5.8789 h 3 v -3.1211 h -9 v -3 h -12.12109 v 3 h -11.87891 v -3 h -12.12109 v 3 h -11.87891 v -3 h -12.12109 v 3 h -11.87891 v -3 z"
         id="rect1160-1-0" />
    </g>
    <g
       id="g8165"
       transform="rotate(90,257.83982,476.791)">
      <path
         style="color:#000000;opacity:1;fill:none;stroke:#000000;stroke-width:0.3;stroke-linecap:round;stroke-dasharray:none;stroke-opacity:1"
         d="m 268.53125,560.71875 h 0.88086 v 25.2793 h -0.88086 z"
         id="path8161" />
      <path
         style="color:#000000;opacity:1;fill:none;stroke:#000000;stroke-width:0.3;stroke-linecap:round;stroke-dasharray:none;stroke-opacity:1"
         d="m 265.41211,557.59961 v 6 h -3 v 6.11914 h 3 v 11.88086 h -3 v 6.11914 h 3 v 3 h 6.11914 v -33.11914 h -0.0605 z"
         id="rect2483-4-2-9-2-7" />
    </g>
    <g
       id="g8181"
       transform="rotate(90,257.83982,476.791)">
      <path
         style="color:#000000;opacity:1;fill:none;stroke:#000000;stroke-width:0.3;stroke-linecap:round;stroke-dasharray:none;stroke-opacity:1"
         d="m 240.25977,573.00977 h 2.88085 v 5.88085 h -2.88085 z"
         id="path8177" />
      <path
         style="color:#000000;opacity:1;fill:none;stroke:#000000;stroke-width:0.3;stroke-linecap:round;stroke-dasharray:none;stroke-opacity:1"
         d="m 217.64062,569.88867 v 3.00195 h -6 v 3.0586 2.93945 h -3 v 6.1211 h 3 v 5.88085 h -3 v 6.11915 h 3 v 5.8789 h -3 v 6.1211 h 3 v 2.93945 3.06055 h 3.1211 v -3 h 2.8789 v 3 h 3.1211 v -3 h 2.8789 v 3 h 3.11915 v -0.0606 -2.95117 c 3.1758,-0.019 6.21377,-1.27708 8.45898,-3.52539 0.0109,-0.0109 0.0221,-0.0225 0.0332,-0.0332 0.62274,-0.60501 1.24322,-1.21485 1.86328,-1.82617 l 2.07813,2.07813 4.30273,-4.30079 v -0.0508 l -2.04882,-2.04882 c 0.67578,-0.6802 1.35304,-1.35986 2.02929,-2.04297 l 2.08203,2.08007 4.32618,-4.32812 -2.09766,-2.09961 c 0.67655,-0.67989 1.35474,-1.35905 2.03516,-2.03711 l 2.0996,2.10156 4.32813,-4.32812 -2.08984,-2.08985 c 0.68922,-0.68961 1.37615,-1.37584 2.05078,-2.05859 l 0.002,-0.002 c 0.003,-0.003 0.005,-0.005 0.008,-0.008 l 0.002,-0.002 c 2.20356,-2.20765 3.46066,-5.18181 3.51757,-8.30078 6.8e-4,-6.7e-4 0.001,-10e-4 0.002,-0.002 l 0.0176,-0.0176 v -3.14648 h 3.00195 v -3.11915 h -3.06055 -2.93945 v -3.00195 h -6.1211 v 3.00195 h -5.88085 v -3.00195 h -9.11915 v 3.00195 h -8.88085 v -3.00195 z"
         id="rect1558-21-7-8-7-7-0-5" />
    </g>
    <g
       id="g8030"
       transform="rotate(90,257.83982,476.791)">
      <path
         style="color:#000000;opacity:1;fill:none;stroke:#000000;stroke-width:0.3;stroke-linecap:round;stroke-dasharray:none;stroke-opacity:1"
         d="m 287.81836,402.83203 c 1.90041,-3e-5 3.44115,1.53905 3.44141,3.43945 2e-5,1.90061 -1.54081,3.43948 -3.44141,3.43946 -1.9006,2e-5 -3.43948,-1.53886 -3.43945,-3.43946 2.5e-4,-1.9004 1.53905,-3.43947 3.43945,-3.43945 z"
         id="path7794" />
      <path
         style="color:#000000;opacity:1;fill:none;stroke:#000000;stroke-width:0.3;stroke-linecap:round;stroke-dasharray:none;stroke-opacity:1"
         d="m 257.81836,402.83203 c 1.9004,-2e-5 3.4392,1.53905 3.43945,3.43945 2e-5,1.9006 -1.53885,3.43948 -3.43945,3.43946 -1.9006,2e-5 -3.43948,-1.53885 -3.43945,-3.43946 2.5e-4,-1.9004 1.53904,-3.43948 3.43945,-3.43945 z"
         id="path7792" />
      <path
         style="color:#000000;opacity:1;fill:none;stroke:#000000;stroke-width:0.3;stroke-linecap:round;stroke-dasharray:none;stroke-opacity:1"
         d="m 227.82031,402.83203 c 1.90041,-2e-5 3.4392,1.53905 3.43946,3.43945 2e-5,1.9006 -1.53886,3.43948 -3.43946,3.43946 -1.9006,2e-5 -3.44143,-1.53885 -3.4414,-3.43946 2.5e-4,-1.9004 1.541,-3.43948 3.4414,-3.43945 z"
         id="path7790" />
      <path
         style="color:#000000;opacity:1;fill:none;stroke:#000000;stroke-width:0.3;stroke-linecap:round;stroke-dasharray:none;stroke-opacity:1"
         d="m 232.62891,363.06836 h 50.3789 v 19.09961 h -50.3789 z"
         id="path7782" />
      <path
         style="color:#000000;opacity:1;fill:none;stroke:#000000;stroke-width:0.3;stroke-linecap:round;stroke-dasharray:none;stroke-opacity:1"
         d="m 206.79297,338.57227 v 0.0605 3.06055 h 0.0664 2.9336 v 2.87891 h -2.99414 v 3.4746 12.11329 h 3 v 5.8789 h -3 v 3.1211 h 3 v 5.8789 h -3 v 3.1211 h 3 v 5.8789 h -3 v 1.11524 h -0.0391 v 12.17773 h 3 v 2.88086 h -3 v 3.11914 h 3 v 2.87891 h -3 v 3.12109 h 3 v 2.87891 h -3 v 3.12109 h 9.11914 v -3 h 11.88086 v 3 h 12.11914 v -3 h 11.88086 v 3 h 12.11914 v -3 h 11.88086 v 3 h 12.11914 v -3 h 11.88086 v 3 h 9.11914 v -3.12109 h -3 v -2.87891 h 3 v -3.12109 h -3 v -2.87891 h 3 v -3.11914 h -3 v -2.88086 h 2.93945 0.10156 v -12.11719 -1.17578 h -3 v -5.8789 h 3 v -3.1211 h -3 v -5.8789 h 3 v -3.1211 h -3 v -5.8789 h 2.99414 v -12.11329 -3.4746 h -3 v -2.87891 h 3 v -3.12109 h -12.12109 v 3 h -11.87891 v -3 h -12.12109 v 3 h -8.87891 v -3 h -12.12109 v 3 h -8.87891 v -3 h -12.12109 v 3 h -11.87891 v -3 z"
         id="rect817-8-2" />
      <path
         style="opacity:1;fill:none;stroke:#000000;stroke-width:0.3;stroke-linecap:butt;stroke-linejoin:miter;stroke-dasharray:none;stroke-opacity:1"
         d="m 207.81873,395.80529 h 32"
         id="path960-2-6-2-6" />
      <path
         style="opacity:1;fill:none;stroke:#000000;stroke-width:0.3;stroke-linecap:butt;stroke-linejoin:miter;stroke-dasharray:none;stroke-opacity:1"
         d="m 206.81873,394.29864 h 16"
         id="path962-8-9-9-2" />
      <path
         style="opacity:1;fill:none;stroke:#000000;stroke-width:0.3;stroke-linecap:butt;stroke-linejoin:miter;stroke-dasharray:none;stroke-opacity:1"
         d="m 224.81873,394.29863 h 16"
         id="path962-5-9-3-3-9" />
      <path
         style="opacity:1;fill:none;stroke:#000000;stroke-width:0.3;stroke-linecap:butt;stroke-linejoin:miter;stroke-dasharray:none;stroke-opacity:1"
         d="m 207.81873,392.79197 h 32"
         id="path960-3-7-7-1-9" />
      <path
         style="opacity:1;fill:none;stroke:#000000;stroke-width:0.3;stroke-linecap:butt;stroke-linejoin:miter;stroke-dasharray:none;stroke-opacity:1"
         d="m 206.81873,391.28533 h 16"
         id="path962-56-3-4-9-0" />
      <path
         style="opacity:1;fill:none;stroke:#000000;stroke-width:0.3;stroke-linecap:butt;stroke-linejoin:miter;stroke-dasharray:none;stroke-opacity:1"
         d="m 224.81873,391.28532 h 16"
         id="path962-5-2-6-5-4-8" />
      <path
         style="opacity:1;fill:none;stroke:#000000;stroke-width:0.3;stroke-linecap:butt;stroke-linejoin:miter;stroke-dasharray:none;stroke-opacity:1"
         d="m 207.81873,389.77868 h 32"
         id="path960-9-1-2-7-1" />
      <path
         style="opacity:1;fill:none;stroke:#000000;stroke-width:0.3;stroke-linecap:butt;stroke-linejoin:miter;stroke-dasharray:none;stroke-opacity:1"
         d="m 206.81873,388.27203 h 16"
         id="path962-1-29-5-8-3" />
      <path
         style="opacity:1;fill:none;stroke:#000000;stroke-width:0.3;stroke-linecap:butt;stroke-linejoin:miter;stroke-dasharray:none;stroke-opacity:1"
         d="m 224.81873,388.27203 h 16"
         id="path962-5-27-3-4-4-1" />
      <path
         style="opacity:1;fill:none;stroke:#000000;stroke-width:0.3;stroke-linecap:butt;stroke-linejoin:miter;stroke-dasharray:none;stroke-opacity:1"
         d="m 207.81873,386.76538 h 32"
         id="path960-3-0-1-7-5-1" />
      <path
         style="opacity:1;fill:none;stroke:#000000;stroke-width:0.3;stroke-linecap:butt;stroke-linejoin:miter;stroke-dasharray:none;stroke-opacity:1"
         d="m 241.81873,395.80529 h 32"
         id="path960-2-4-4-3-0" />
      <path
         style="opacity:1;fill:none;stroke:#000000;stroke-width:0.3;stroke-linecap:butt;stroke-linejoin:miter;stroke-dasharray:none;stroke-opacity:1"
         d="m 240.81873,394.29864 h 16"
         id="path962-8-7-3-6-3" />
      <path
         style="opacity:1;fill:none;stroke:#000000;stroke-width:0.3;stroke-linecap:butt;stroke-linejoin:miter;stroke-dasharray:none;stroke-opacity:1"
         d="m 258.81873,394.29863 h 16"
         id="path962-5-9-8-07-10-4" />
      <path
         style="opacity:1;fill:none;stroke:#000000;stroke-width:0.3;stroke-linecap:butt;stroke-linejoin:miter;stroke-dasharray:none;stroke-opacity:1"
         d="m 241.81873,392.79197 h 32"
         id="path960-3-7-4-8-6-0" />
      <path
         style="opacity:1;fill:none;stroke:#000000;stroke-width:0.3;stroke-linecap:butt;stroke-linejoin:miter;stroke-dasharray:none;stroke-opacity:1"
         d="m 240.81873,391.28533 h 16"
         id="path962-56-3-5-6-3-3" />
      <path
         style="opacity:1;fill:none;stroke:#000000;stroke-width:0.3;stroke-linecap:butt;stroke-linejoin:miter;stroke-dasharray:none;stroke-opacity:1"
         d="m 258.81873,391.28532 h 16"
         id="path962-5-2-6-0-8-2-9" />
      <path
         style="opacity:1;fill:none;stroke:#000000;stroke-width:0.3;stroke-linecap:butt;stroke-linejoin:miter;stroke-dasharray:none;stroke-opacity:1"
         d="m 241.81873,389.77868 h 32"
         id="path960-9-1-3-8-0-1" />
      <path
         style="opacity:1;fill:none;stroke:#000000;stroke-width:0.3;stroke-linecap:butt;stroke-linejoin:miter;stroke-dasharray:none;stroke-opacity:1"
         d="m 240.81873,388.27203 h 16"
         id="path962-1-29-6-43-6-9" />
      <path
         style="opacity:1;fill:none;stroke:#000000;stroke-width:0.3;stroke-linecap:butt;stroke-linejoin:miter;stroke-dasharray:none;stroke-opacity:1"
         d="m 258.81873,388.27203 h 16"
         id="path962-5-27-3-1-1-1-6" />
      <path
         style="opacity:1;fill:none;stroke:#000000;stroke-width:0.3;stroke-linecap:butt;stroke-linejoin:miter;stroke-dasharray:none;stroke-opacity:1"
         d="m 241.81873,386.76538 h 32"
         id="path960-3-0-1-0-4-5-9" />
      <path
         style="opacity:1;fill:none;stroke:#000000;stroke-width:0.3;stroke-linecap:butt;stroke-linejoin:miter;stroke-dasharray:none;stroke-opacity:1"
         d="m 275.81873,395.80529 h 31.99999"
         id="path960-2-4-3-9-54-3" />
      <path
         style="opacity:1;fill:none;stroke:#000000;stroke-width:0.3;stroke-linecap:butt;stroke-linejoin:miter;stroke-dasharray:none;stroke-opacity:1"
         d="m 274.81872,394.29863 h 16"
         id="path962-8-7-2-2-7-3" />
      <path
         style="opacity:1;fill:none;stroke:#000000;stroke-width:0.3;stroke-linecap:butt;stroke-linejoin:miter;stroke-dasharray:none;stroke-opacity:1"
         d="m 292.81873,394.29862 h 16"
         id="path962-5-9-8-0-0-6-8" />
      <path
         style="opacity:1;fill:none;stroke:#000000;stroke-width:0.3;stroke-linecap:butt;stroke-linejoin:miter;stroke-dasharray:none;stroke-opacity:1"
         d="m 275.81873,392.79197 h 31.99999"
         id="path960-3-7-4-6-6-5-0" />
      <path
         style="opacity:1;fill:none;stroke:#000000;stroke-width:0.3;stroke-linecap:butt;stroke-linejoin:miter;stroke-dasharray:none;stroke-opacity:1"
         d="m 274.81872,391.28533 h 16"
         id="path962-56-3-5-1-8-6-5" />
      <path
         style="opacity:1;fill:none;stroke:#000000;stroke-width:0.3;stroke-linecap:butt;stroke-linejoin:miter;stroke-dasharray:none;stroke-opacity:1"
         d="m 292.81873,391.28531 h 16"
         id="path962-5-2-6-0-5-9-9-6" />
      <path
         style="opacity:1;fill:none;stroke:#000000;stroke-width:0.3;stroke-linecap:butt;stroke-linejoin:miter;stroke-dasharray:none;stroke-opacity:1"
         d="m 275.81873,389.77868 h 31.99999"
         id="path960-9-1-3-5-2-3-6" />
      <path
         style="opacity:1;fill:none;stroke:#000000;stroke-width:0.3;stroke-linecap:butt;stroke-linejoin:miter;stroke-dasharray:none;stroke-opacity:1"
         d="m 274.81872,388.27202 h 16"
         id="path962-1-29-6-4-6-7-4" />
      <path
         style="opacity:1;fill:none;stroke:#000000;stroke-width:0.3;stroke-linecap:butt;stroke-linejoin:miter;stroke-dasharray:none;stroke-opacity:1"
         d="m 292.81873,388.27202 h 16"
         id="path962-5-27-3-1-7-6-4-0" />
      <path
         style="opacity:1;fill:none;stroke:#000000;stroke-width:0.3;stroke-linecap:butt;stroke-linejoin:miter;stroke-dasharray:none;stroke-opacity:1"
         d="m 275.81873,386.76537 h 31.99999"
         id="path960-3-0-1-0-6-4-5-0" />
      <path
         style="opacity:1;fill:none;stroke:#000000;stroke-width:0.3;stroke-linecap:butt;stroke-linejoin:miter;stroke-dasharray:none;stroke-opacity:1"
         d="m 207.81873,358.55208 h 32"
         id="path960-2-6-9-0-4" />
      <path
         style="opacity:1;fill:none;stroke:#000000;stroke-width:0.3;stroke-linecap:butt;stroke-linejoin:miter;stroke-dasharray:none;stroke-opacity:1"
         d="m 206.81873,357.04543 h 16"
         id="path962-8-9-7-6-6" />
      <path
         style="opacity:1;fill:none;stroke:#000000;stroke-width:0.3;stroke-linecap:butt;stroke-linejoin:miter;stroke-dasharray:none;stroke-opacity:1"
         d="m 224.81873,357.04541 h 16"
         id="path962-5-9-3-7-8-2" />
      <path
         style="opacity:1;fill:none;stroke:#000000;stroke-width:0.3;stroke-linecap:butt;stroke-linejoin:miter;stroke-dasharray:none;stroke-opacity:1"
         d="m 207.81873,355.53876 h 32"
         id="path960-3-7-7-6-9-6" />
      <path
         style="opacity:1;fill:none;stroke:#000000;stroke-width:0.3;stroke-linecap:butt;stroke-linejoin:miter;stroke-dasharray:none;stroke-opacity:1"
         d="m 206.81873,354.03212 h 16"
         id="path962-56-3-4-7-2-7" />
      <path
         style="opacity:1;fill:none;stroke:#000000;stroke-width:0.3;stroke-linecap:butt;stroke-linejoin:miter;stroke-dasharray:none;stroke-opacity:1"
         d="m 224.81873,354.0321 h 16"
         id="path962-5-2-6-5-3-6-5" />
      <path
         style="opacity:1;fill:none;stroke:#000000;stroke-width:0.3;stroke-linecap:butt;stroke-linejoin:miter;stroke-dasharray:none;stroke-opacity:1"
         d="m 207.81873,352.52547 h 32"
         id="path960-9-1-2-6-6-6" />
      <path
         style="opacity:1;fill:none;stroke:#000000;stroke-width:0.3;stroke-linecap:butt;stroke-linejoin:miter;stroke-dasharray:none;stroke-opacity:1"
         d="m 206.81873,351.01881 h 16"
         id="path962-1-29-5-5-4-9" />
      <path
         style="opacity:1;fill:none;stroke:#000000;stroke-width:0.3;stroke-linecap:butt;stroke-linejoin:miter;stroke-dasharray:none;stroke-opacity:1"
         d="m 224.81873,351.01881 h 16"
         id="path962-5-27-3-4-6-9-8" />
      <path
         style="opacity:1;fill:none;stroke:#000000;stroke-width:0.3;stroke-linecap:butt;stroke-linejoin:miter;stroke-dasharray:none;stroke-opacity:1"
         d="m 207.81873,349.51216 h 32"
         id="path960-3-0-1-7-3-5-7" />
      <path
         style="opacity:1;fill:none;stroke:#000000;stroke-width:0.3;stroke-linecap:butt;stroke-linejoin:miter;stroke-dasharray:none;stroke-opacity:1"
         d="m 241.81873,358.55208 h 32"
         id="path960-2-4-4-4-4-2" />
      <path
         style="opacity:1;fill:none;stroke:#000000;stroke-width:0.3;stroke-linecap:butt;stroke-linejoin:miter;stroke-dasharray:none;stroke-opacity:1"
         d="m 240.81873,357.04543 h 16"
         id="path962-8-7-3-8-8-8" />
      <path
         style="opacity:1;fill:none;stroke:#000000;stroke-width:0.3;stroke-linecap:butt;stroke-linejoin:miter;stroke-dasharray:none;stroke-opacity:1"
         d="m 258.81873,357.04541 h 16"
         id="path962-5-9-8-07-1-7-2" />
      <path
         style="opacity:1;fill:none;stroke:#000000;stroke-width:0.3;stroke-linecap:butt;stroke-linejoin:miter;stroke-dasharray:none;stroke-opacity:1"
         d="m 241.81873,355.53876 h 32"
         id="path960-3-7-4-8-2-1-9" />
      <path
         style="opacity:1;fill:none;stroke:#000000;stroke-width:0.3;stroke-linecap:butt;stroke-linejoin:miter;stroke-dasharray:none;stroke-opacity:1"
         d="m 240.81873,354.03212 h 16"
         id="path962-56-3-5-6-9-7-9" />
      <path
         style="opacity:1;fill:none;stroke:#000000;stroke-width:0.3;stroke-linecap:butt;stroke-linejoin:miter;stroke-dasharray:none;stroke-opacity:1"
         d="m 258.81873,354.0321 h 16"
         id="path962-5-2-6-0-8-3-2-6" />
      <path
         style="opacity:1;fill:none;stroke:#000000;stroke-width:0.3;stroke-linecap:butt;stroke-linejoin:miter;stroke-dasharray:none;stroke-opacity:1"
         d="m 241.81873,352.52547 h 32"
         id="path960-9-1-3-8-9-7-0" />
      <path
         style="opacity:1;fill:none;stroke:#000000;stroke-width:0.3;stroke-linecap:butt;stroke-linejoin:miter;stroke-dasharray:none;stroke-opacity:1"
         d="m 240.81873,351.01881 h 16"
         id="path962-1-29-6-43-0-2-2" />
      <path
         style="opacity:1;fill:none;stroke:#000000;stroke-width:0.3;stroke-linecap:butt;stroke-linejoin:miter;stroke-dasharray:none;stroke-opacity:1"
         d="m 258.81873,351.01881 h 16"
         id="path962-5-27-3-1-1-8-2-7" />
      <path
         style="opacity:1;fill:none;stroke:#000000;stroke-width:0.3;stroke-linecap:butt;stroke-linejoin:miter;stroke-dasharray:none;stroke-opacity:1"
         d="m 241.81873,349.51216 h 32"
         id="path960-3-0-1-0-4-8-6-6" />
      <path
         style="opacity:1;fill:none;stroke:#000000;stroke-width:0.3;stroke-linecap:butt;stroke-linejoin:miter;stroke-dasharray:none;stroke-opacity:1"
         d="m 275.81873,358.55207 h 31.99999"
         id="path960-2-4-3-9-5-1-1" />
      <path
         style="opacity:1;fill:none;stroke:#000000;stroke-width:0.3;stroke-linecap:butt;stroke-linejoin:miter;stroke-dasharray:none;stroke-opacity:1"
         d="m 274.81872,357.04542 h 16"
         id="path962-8-7-2-2-0-0-3" />
      <path
         style="opacity:1;fill:none;stroke:#000000;stroke-width:0.3;stroke-linecap:butt;stroke-linejoin:miter;stroke-dasharray:none;stroke-opacity:1"
         d="m 292.81873,357.04541 h 16"
         id="path962-5-9-8-0-0-9-6-2" />
      <path
         style="opacity:1;fill:none;stroke:#000000;stroke-width:0.3;stroke-linecap:butt;stroke-linejoin:miter;stroke-dasharray:none;stroke-opacity:1"
         d="m 275.81873,355.53875 h 31.99999"
         id="path960-3-7-4-6-6-6-1-1" />
      <path
         style="opacity:1;fill:none;stroke:#000000;stroke-width:0.3;stroke-linecap:butt;stroke-linejoin:miter;stroke-dasharray:none;stroke-opacity:1"
         d="m 274.81872,354.03211 h 16"
         id="path962-56-3-5-1-8-3-5-5" />
      <path
         style="opacity:1;fill:none;stroke:#000000;stroke-width:0.3;stroke-linecap:butt;stroke-linejoin:miter;stroke-dasharray:none;stroke-opacity:1"
         d="m 292.81873,354.0321 h 16"
         id="path962-5-2-6-0-5-9-8-9-9" />
      <path
         style="opacity:1;fill:none;stroke:#000000;stroke-width:0.3;stroke-linecap:butt;stroke-linejoin:miter;stroke-dasharray:none;stroke-opacity:1"
         d="m 275.81873,352.52546 h 31.99999"
         id="path960-9-1-3-5-2-5-4-9" />
      <path
         style="opacity:1;fill:none;stroke:#000000;stroke-width:0.3;stroke-linecap:butt;stroke-linejoin:miter;stroke-dasharray:none;stroke-opacity:1"
         d="m 274.81872,351.01881 h 16"
         id="path962-1-29-6-4-6-6-9-1" />
      <path
         style="opacity:1;fill:none;stroke:#000000;stroke-width:0.3;stroke-linecap:butt;stroke-linejoin:miter;stroke-dasharray:none;stroke-opacity:1"
         d="m 292.81873,351.01881 h 16"
         id="path962-5-27-3-1-7-6-1-0-4" />
      <path
         style="opacity:1;fill:none;stroke:#000000;stroke-width:0.3;stroke-linecap:butt;stroke-linejoin:miter;stroke-dasharray:none;stroke-opacity:1"
         d="m 275.81873,349.51215 h 31.99999"
         id="path960-3-0-1-0-6-4-1-9-9" />
      <path
         style="color:#000000;opacity:1;fill:none;stroke:#000000;stroke-width:0.3;stroke-linecap:round;stroke-dasharray:none;stroke-opacity:1"
         d="m 242.61914,363.56445 v 6.11914 h 3 v 5.87891 h -3 v 6.12109 h 0.0586 3.00196 3.05859 v -18.11914 h -3.05859 z"
         id="rect4733-1-8-1" />
      <path
         style="color:#000000;opacity:1;fill:none;stroke:#000000;stroke-width:0.3;stroke-linecap:round;stroke-dasharray:none;stroke-opacity:1"
         d="m 234.79883,363.53125 v 6.11914 h 3 v 5.88086 h -3 v 6.11914 h 0.0605 3 3.06055 v -18.11914 h -3.06055 z"
         id="rect4733-1-1-0" />
      <path
         style="color:#000000;opacity:1;fill:none;stroke:#000000;stroke-width:0.3;stroke-dasharray:none;stroke-opacity:1"
         d="m 250.5,363.53516 v 6.11914 h 3 v 5.88086 h -3 v 6.11914 h 0.0606 2.99804 6.06055 v -18.11914 h -6.06055 z"
         id="rect2564-5-7-8" />
      <path
         style="color:#000000;opacity:1;fill:none;stroke:#000000;stroke-width:0.3;stroke-dasharray:none;stroke-opacity:1"
         d="m 272.24219,363.5625 v 6.12109 h 3 v 5.87891 h -3 v 6.12109 h 0.0605 3 6.06055 V 363.5625 h -6.06055 z"
         id="rect2564-5-75-7" />
      <path
         style="color:#000000;opacity:1;fill:none;stroke:#000000;stroke-width:0.3;stroke-dasharray:none;stroke-opacity:1"
         d="m 261.99414,363.49023 v 6.11914 h 3 v 5.88086 h -3 v 6.11914 h 0.0586 3 6.06055 v -18.11914 h -6.06055 z"
         id="rect2564-5-4-0" />
    </g>
    <g
       id="g14294"
       transform="rotate(90,189.85698,559.77006)">
      <path
         style="color:#000000;opacity:1;fill:none;stroke:#000000;stroke-width:0.3;stroke-linecap:round;stroke-dasharray:none;stroke-opacity:1"
         d="m 63.371094,542.80859 h 8.880859 v 29.88086 h -8.880859 z"
         id="path14290" />
      <path
         style="color:#000000;opacity:1;fill:none;stroke:#000000;stroke-width:0.3;stroke-linecap:round;stroke-dasharray:none;stroke-opacity:1"
         d="m 60.224609,538.78906 v 0.0586 2.9414 h -3.001953 v 6.11914 h 3.001953 v 5.88086 h -3.001953 v 6.11914 h 3.001953 v 5.88086 h -3.001953 v 6.11914 h 3.001953 v 2.94141 3.05859 h 9 v 3 h 6.119141 v -3 h 5.880859 v 3 h 6.119141 v -3 h 5.880859 v 3 h 6.119141 v -3 h 9 v -3.05859 -3.20703 l -0.0176,-0.0195 c -0.001,-10e-4 -0.003,-0.003 -0.004,-0.004 -0.0579,-3.11754 -1.31298,-6.09012 -3.51563,-8.29687 l -0.002,-0.002 -0.002,-0.002 c -0.002,-0.002 -0.005,-0.004 -0.008,-0.006 l -0.004,-0.004 c -1.23066,-1.24548 -2.49651,-2.50691 -3.75782,-3.76757 l -0.041,-0.043 -3.783206,3.7832 3.175786,3.17578 -1.117192,1.11719 -3.185547,-3.18555 -5.277344,5.27539 -13.349609,-13.34961 5.275391,-5.27539 -3.179688,-3.17969 1.119141,-1.11718 3.189453,3.18945 3.800781,-3.80078 -0.04297,-0.043 c -1.257163,-1.25338 -2.515346,-2.50058 -3.78125,-3.73047 -0.01056,-0.0104 -0.0228,-0.0207 -0.0332,-0.0312 -2.259949,-2.26306 -5.323053,-3.53421 -8.521484,-3.53711 z"
         id="rect1558-21-7-8-7-1-8-9" />
    </g>
    <g
       id="g14315"
       transform="rotate(90,164.69666,583.59738)">
      <path
         style="color:#000000;opacity:1;fill:none;stroke:#000000;stroke-width:0.3;stroke-linecap:round;stroke-dasharray:none;stroke-opacity:1"
         d="m 81.076172,604.51758 c 3.281395,-8e-5 5.939535,2.66001 5.939453,5.9414 8.2e-5,3.2814 -2.658058,5.93954 -5.939453,5.93946 -3.281195,-2e-4 -5.939535,-2.65826 -5.939453,-5.93946 -8.2e-5,-3.28119 2.658258,-5.9412 5.939453,-5.9414 z"
         id="path14310" />
      <path
         style="color:#000000;opacity:1;fill:none;stroke:#000000;stroke-width:0.3;stroke-linecap:round;stroke-dasharray:none;stroke-opacity:1"
         d="m 88.966797,589.18555 h 8.878906 v 23.78125 h -8.878906 z"
         id="path14306" />
      <path
         style="color:#000000;opacity:1;fill:none;stroke:#000000;stroke-width:0.3;stroke-linecap:round;stroke-dasharray:none;stroke-opacity:1"
         d="m 85.908203,586.06641 c -3.198425,0.003 -6.261539,1.27404 -8.521484,3.53711 -0.01072,0.0109 -0.02036,0.0205 -0.03125,0.0312 -1.265901,1.22987 -2.525995,2.47691 -3.783203,3.73046 l -0.04297,0.043 3.802734,3.80078 3.1875,-3.18945 1.117188,1.11719 -3.177735,3.17969 1.888672,1.88671 -13.351562,13.34961 -1.886719,-1.88671 -3.185547,3.18554 -1.117187,-1.11719 3.175781,-3.17578 -3.783203,-3.7832 -0.04297,0.043 c -1.262615,1.26199 -2.529861,2.52475 -3.761719,3.77148 -0.0025,0.002 -0.0053,0.004 -0.0078,0.006 l -0.002,0.002 -0.002,0.002 c -2.202658,2.20677 -3.455789,5.17934 -3.513671,8.29687 -0.002,0.002 -0.0039,0.004 -0.0059,0.006 l -0.01758,0.0176 v 3.20508 3.06055 h 9 v 3 h 6.121094 v -3 h 5.878906 v 3 h 6.121094 v -3 h 5.878906 v 3 h 6.121094 v -3 h 9.000008 v -3.06055 -2.93945 h 3 v -6.11914 h -3 v -5.88086 h 3 v -6.11914 h -3 v -5.88086 h 3 v -6.11914 h -3 v -3 h -0.0606 z"
         id="rect2483-9-5-1" />
    </g>
  </g>
</svg>
